<svg width="375" height="387" viewBox="0 0 375 387" fill="none" xmlns="http://www.w3.org/2000/svg">
<g opacity="0.1">
<g clip-path="url(#clip0_23_2720)">
<path d="M19.9103 -84.1694V778.817" stroke="white" stroke-width="0.654481"/>
<path d="M61.7971 -84.1694V778.817" stroke="white" stroke-width="0.654481"/>
<path d="M103.684 -84.1694V778.817" stroke="white" stroke-width="0.654481"/>
<path d="M145.571 -84.1694V778.817" stroke="white" stroke-width="0.654481"/>
<path d="M187.457 -84.1694V778.817" stroke="white" stroke-width="0.654481"/>
<path d="M229.344 -84.1694V778.817" stroke="white" stroke-width="0.654481"/>
<path d="M271.231 -84.1694V778.817" stroke="white" stroke-width="0.654481"/>
<path d="M313.118 -84.1694V778.817" stroke="white" stroke-width="0.654481"/>
<path d="M355.005 -84.1694V778.817" stroke="white" stroke-width="0.654481"/>
</g>
<g clip-path="url(#clip1_23_2720)">
<path d="M-315.184 41.4908L933 41.4908" stroke="white" stroke-width="0.654481"/>
<path d="M-315.184 83.3776L933 83.3776" stroke="white" stroke-width="0.654481"/>
<path d="M-315.184 125.264L933 125.264" stroke="white" stroke-width="0.654481"/>
<path d="M-315.184 167.151L933 167.151" stroke="white" stroke-width="0.654481"/>
<path d="M-315.184 209.038L933 209.038" stroke="white" stroke-width="0.654481"/>
<path d="M-315.184 250.925L933 250.925" stroke="white" stroke-width="0.654481"/>
<path d="M-315.184 292.811L933 292.811" stroke="white" stroke-width="0.654481"/>
<path d="M-315.184 334.698L933 334.698" stroke="white" stroke-width="0.654481"/>
<path d="M-315.184 376.585L933 376.585" stroke="white" stroke-width="0.654481"/>
</g>
</g>
<defs>
<clipPath id="clip0_23_2720">
<rect width="1248.18" height="806.841" fill="white" transform="translate(-315.184 -84.1694)"/>
</clipPath>
<clipPath id="clip1_23_2720">
<rect width="1248.18" height="806.841" fill="white" transform="translate(-315.184 -84.1694)"/>
</clipPath>
</defs>
</svg>
